<svg xmlns="http://www.w3.org/2000/svg" xmlns:xlink="http://www.w3.org/1999/xlink" width="21" height="16" viewBox="0 0 21 16"><defs><path id="a" d="M1052.12 8160.1v2.5a8.23 8.23 0 0 1-8.06 6.4 8.03 8.03 0 0 1-8.06-8c0-4.42 3.6-8 8.06-8 2.2 0 4.18.87 5.64 2.28l-1.82 1.96a5.37 5.37 0 0 0-9.2 3.76c0 2.94 2.41 5.33 5.38 5.33 2.4 0 4.44-1.57 5.12-3.74h-4.58v-2.48zm4.88 1.31h-1.54v1.53h-1.32v-1.53h-1.54v-1.3h1.54v-1.54h1.32v1.53h1.54z"/></defs><use fill="#868686" xlink:href="#a" transform="translate(-1036 -8153)"/></svg>