<svg xmlns="http://www.w3.org/2000/svg" viewBox="0 0 56 56" width="512" height="512"><path d="M28 2.695C14.047 2.695 2.695 14.047 2.695 28S14.047 53.305 28 53.305 53.305 41.953 53.305 28 41.953 2.695 28 2.695zm0 48.802C15.043 51.497 4.503 40.957 4.503 28S15.043 4.503 28 4.503 51.497 15.043 51.497 28 40.957 51.497 28 51.497z" data-original="#000000" class="active-path" data-old_color="#66cdaa" fill="#66cdaa"/><path d="M38.845 17.155h-21.69a.903.903 0 1 0 0 1.808h21.69a.903.903 0 1 0 0-1.808zm0 9.941h-21.69a.903.903 0 1 0 0 1.808h21.69a.903.903 0 1 0 0-1.808zm0 9.941h-21.69a.903.903 0 1 0 0 1.808h21.69a.903.903 0 1 0 0-1.808z" data-original="#000000" class="active-path" data-old_color="#66cdaa" fill="#66cdaa"/></svg>