<svg xmlns="http://www.w3.org/2000/svg" xmlns:xlink="http://www.w3.org/1999/xlink" width="16" height="16" viewBox="0 0 16 16"><defs><path id="xteea" d="M906.01 8155h-6.08c-.88 0-1.66.27-2.16.77-.5.5-.77 1.27-.77 2.16v6.08c0 .88.28 1.66.83 2.21.55.5 1.27.77 2.16.77H906c.89 0 1.66-.27 2.16-.77.55-.5.83-1.27.83-2.16v-6.08c0-.88-.28-1.6-.77-2.16a2.96 2.96 0 0 0-2.22-.83zm4.99 9.3c0 1.39-.48 2.59-1.33 3.43a4.7 4.7 0 0 1-3.38 1.26h-6.58a4.71 4.71 0 0 1-3.38-1.26 4.53 4.53 0 0 1-1.33-3.43v-6.61c0-2.77 1.87-4.7 4.71-4.7h6.64c1.39 0 2.54.49 3.38 1.33a4.58 4.58 0 0 1 1.27 3.37zm-8-1.3a2 2 0 1 0 0-4 2 2 0 0 0 0 4zm-.03 2a3.99 3.99 0 0 1-3.97-4c0-2.24 1.81-4 3.97-4a4 4 0 0 1 0 8zm4.03-7c-.56 0-1-.44-1-1 0-.57.44-1 1-1s1 .43 1 1c0 .56-.44 1-1 1z"/></defs><g><g transform="translate(-895 -8153)"><use fill="#868686" xlink:href="#xteea"/></g></g></svg>