<svg xmlns="http://www.w3.org/2000/svg" xmlns:xlink="http://www.w3.org/1999/xlink" width="24" height="24" viewBox="0 0 24 24"><defs><path id="8l3va" d="M594.06 5637.63v2.86c0 .83-.68 1.5-1.51 1.5h-21.04c-.83 0-1.51-.67-1.51-1.5v-2.86c0-.61.39-1.17.96-1.4 6.23-2.4 7.38-3.42 7.59-3.74v-.73a7.92 7.92 0 0 1-1.62-2.98 2.54 2.54 0 0 1-.45-3.3v-2.34c0-3.22 2.08-5.14 5.55-5.14 3.52 0 5.55 1.87 5.55 5.14v2.33a2.5 2.5 0 0 1-.45 3.3 7.93 7.93 0 0 1-1.62 2.99v.73c.19.28 1.28 1.3 7.59 3.74.57.22.96.79.96 1.4zm-1.42 0c-7.05-2.8-8.25-3.96-8.52-4.8a.71.71 0 0 1-.03-.2v-1.14c0-.18.07-.35.2-.48a6.51 6.51 0 0 0 1.53-2.82.7.7 0 0 1 .27-.38c.26-.17.43-.46.48-.77.04-.33-.05-.66-.26-.92a.68.68 0 0 1-.15-.43v-2.55c0-2.5-1.4-3.76-4.13-3.76-2.7 0-4.13 1.3-4.13 3.76v2.55c0 .16-.05.31-.15.44a1.16 1.16 0 0 0 .22 1.68c.13.1.22.23.27.38a6.51 6.51 0 0 0 1.53 2.82c.13.13.2.3.2.48v1.14c0 .07-.01.14-.03.2-.27.84-1.47 2-8.45 4.69l-.07 2.97c0 .07.05.12.09.12h21.04c.04 0 .1-.05.1-.12z"/></defs><g><g transform="translate(-570 -5618)"><use fill="#868686" xlink:href="#8l3va"/></g></g></svg>