<svg xmlns="http://www.w3.org/2000/svg" xmlns:xlink="http://www.w3.org/1999/xlink" width="14" height="12" viewBox="0 0 14 12"><defs><path id="r8kwa" d="M840 8156.53a5.6 5.6 0 0 1-1.65.46c.6-.37 1.05-.95 1.27-1.64-.57.35-1.18.6-1.83.72a2.83 2.83 0 0 0-4.14-.06 2.98 2.98 0 0 0-.76 2.77 8.07 8.07 0 0 1-5.92-3.1 3.03 3.03 0 0 0 .9 3.96c-.47-.01-.91-.14-1.3-.37v.04c-.02 1.4.95 2.62 2.3 2.91a2.8 2.8 0 0 1-1.3.05 2.89 2.89 0 0 0 2.68 2.06 5.65 5.65 0 0 1-3.56 1.27.9.9 0 0 1-.69-.04 7.92 7.92 0 0 0 4.4 1.34 8.1 8.1 0 0 0 5.82-2.48 8.43 8.43 0 0 0 2.35-5.97v-.38a5.94 5.94 0 0 0 1.43-1.54z"/></defs><g><g transform="translate(-826 -8155)"><use fill="#868686" xlink:href="#r8kwa"/></g></g></svg>